<svg id="Layer_1" enable-background="new 0 0 256 256" height="512" viewBox="0 0 256 256" width="512" xmlns="http://www.w3.org/2000/svg"><g><path d="m55.36 126.09h-26.01c-7.145-15.188-4.271-33.509 7.98-45.76l14.27 14.27c-9.396 9.396-7.182 24.989 3.76 31.49z" fill="#fff"/><path d="m51.6 94.6c-9.396 9.396-7.182 24.989 3.76 31.49h27.72c-24.846-24.846-17.977-17.975-31.48-31.49z" fill="#f0c020"/><path d="m143.94 9.04v91.39c-6.64-10.19-17.14-17.65-29.42-20.31v-71.08c0-1.96 1.59-3.54 3.54-3.54h22.34c1.95 0 3.54 1.58 3.54 3.54z" fill="#f0c020"/><path d="m143.94 100.43c-6.64-10.19-17.14-17.65-29.42-20.31-21.98-4.82-43.04 6.56-52.25 25.16l20.81 20.81h68.46c0-9.13-2.65-18.06-7.6-25.66z" fill="#f9e5af"/><path d="m230.43 126.09h-78.89c0-9.13-2.65-18.06-7.6-25.66 8.4-12.88 22.93-21.39 39.44-21.39 26.04 0 47.05 21.11 47.05 47.05z" fill="#f0c020"/><path d="m236.804 126.088c2.005 0 3.604 1.667 3.54 3.671-1.355 42.206-25.978 78.532-61.452 96.584h-101.846c-35.483-18.051-60.101-54.382-61.452-96.592-.064-2.001 1.538-3.663 3.54-3.663z" fill="#fc5d3d"/><path d="m175.673 215.844h-80.354c-1.381 0-2.5-1.119-2.5-2.5s1.119-2.5 2.5-2.5h79.709c16.339-9.088 29.627-22.583 38.455-39.063.652-1.217 2.167-1.677 3.385-1.023 1.217.652 1.675 2.168 1.023 3.385-9.388 17.523-23.571 31.837-41.018 41.394-.367.201-.78.307-1.2.307zm-90.354 0h-5.057c-1.381 0-2.5-1.119-2.5-2.5s1.119-2.5 2.5-2.5h5.057c1.381 0 2.5 1.119 2.5 2.5s-1.119 2.5-2.5 2.5z" fill="#ffcbc2"/><path d="m77.046 226.344v20.621c0 1.953 1.583 3.535 3.535 3.535h94.776c1.952 0 3.535-1.583 3.535-3.535v-20.621z" fill="#7c7b7a"/><path d="m240.479 15.09c1.471-.045 2.468-1.28 2.431-2.57-.038-1.283-1.039-2.42-2.57-2.42l-93.9 2.599v-3.659c0-3.33-2.71-6.04-6.04-6.04h-22.34c-3.33 0-6.04 2.71-6.04 6.04v4.617l-35.04.973c-1.379.04-2.45 1.179-2.43 2.57.038 1.285 1.038 2.43 2.57 2.43l34.9-.969v8.128l-34.9-.97c-1.43-.05-2.54 1.04-2.57 2.431-.042 1.396 1.079 2.54 2.43 2.56l35.04.976v45.33c-20.398-3.198-40.221 6.701-50.351 24.016-10.344-10.348-5.454-5.456-22.569-22.572-.95-.939-2.59-.939-3.54 0-12.037 12.066-15.579 29.549-9.938 45.03h-6.492c-3.157 0-6.04 2.476-6.04 6.25.634 19.279 6.026 38.505 16.67 55.979.736 1.2 2.272 1.54 3.44.841 1.184-.728 1.551-2.265.83-3.44 0 0 0-.01-.01-.01-9.81-16.11-15.32-34.62-15.93-53.54 0-.65.496-1.08 1.04-1.08h217.67c.55 0 1.04.408 1.04 1.12-1.28 39.78-24.1 75.85-59.55 94.13h-100.64c-12.15-6.26-22.92-14.64-32.02-24.91-.88-1-2.53-1.1-3.53-.22-1.04.914-1.133 2.505-.21 3.53 9.307 10.512 20.293 19.096 32.66 25.597v19.123c0 3.33 2.7 6.04 6.03 6.04h23.82c1.38 0 2.5-1.12 2.5-2.5s-1.12-2.5-2.5-2.5h-23.82c-.57 0-1.03-.471-1.03-1.04v-18.12h96.84v18.12c0 .569-.47 1.04-1.04 1.04h-50.94c-1.38 0-2.51 1.12-2.51 2.5s1.13 2.5 2.51 2.5h.01 50.93c3.33 0 6.04-2.71 6.04-6.04v-19.116c36.02-18.937 60.1-55.947 61.45-98.004 0-3.784-2.896-6.25-6.04-6.25h-3.932c-1.288-26.078-22.824-47.05-49.488-47.05-14.275 0-27.61 6.089-36.94 16.554v-28.604c0-1.37-1.12-2.5-2.5-2.5s-2.5 1.13-2.5 2.5v28.579c-3.019-3.378-6.167-6.021-9.71-8.356v-52.379l9.71.271v11.885c0 1.38 1.12 2.5 2.5 2.5s2.5-1.12 2.5-2.5v-11.746c.122.003 93.848 2.615 93.971 2.615 1.359 0 2.449-1.069 2.489-2.43.043-1.417-1.09-2.529-2.43-2.57l-94.03-2.613v-10.044zm-123.459-6.05c0-.57.47-1.04 1.04-1.04h8.67v19.198l-9.71-.27zm-12.53 97.81c-9.761 0-17.835 7.31-19.068 16.74h-1.302l-7.287-7.289c4.091-11.561 15.219-19.561 27.647-19.561 15.317.028 27.94 11.855 29.241 26.85h-10.183c-1.231-9.43-9.297-16.74-19.048-16.74zm14 16.74h-28.013c1.196-6.652 7.018-11.731 14.013-11.74 6.977.008 12.797 5.088 14 11.74zm-87.52 0c-5.64-13.43-3.117-28.812 6.42-39.67l10.77 10.77c-6.695 8.347-6.656 20.566.41 28.9zm25.124 0c-8.16-5.273-10.669-16.943-4.358-25.314 16.018 16.036 19.59 19.596 25.304 25.314zm113.276 0c1.21-6.79 7.1-11.73 14.01-11.74 6.92.01 12.81 4.95 14.02 11.74zm14.01-42.05c24.171 0 43.215 19.002 44.479 42.05h-10.219c-.296-4.147-1.32-8.156-3.071-11.94-.56-1.21-2.1-1.779-3.319-1.21-1.23.565-1.804 2.022-1.23 3.301.011.01.011.01.011.02 1.439 3.1 2.31 6.41 2.6 9.83h-10.182c-1.233-9.43-9.307-16.74-19.068-16.74s-17.819 7.31-19.049 16.74h-10.181c1.301-15.29 13.86-26.83 29.23-26.86 5.02 0 9.979 1.29 14.33 3.73 1.16.649 2.75.2 3.399-.96.671-1.2.24-2.73-.96-3.4-5.09-2.859-10.89-4.37-16.75-4.37h-.02c-14.153 0-26.07 8.502-31.358 20.329-1.225-4.159-3.035-8.149-5.088-11.555-.005-.008-.009-.016-.014-.024 8.36-11.861 21.979-18.941 36.46-18.941zm-41.554 20.219c.006.01.008.021.014.031 4.323 6.631 6.711 14.236 7.124 21.8h-10.225c-1.277-17.674-15.949-31.85-34.258-31.85-13.953 0-26.095 8.275-31.496 20.709l-7.648-7.65c7.818-14.312 22.721-23.29 39.044-23.29 14.913.001 29.142 7.544 37.445 20.25zm-15.096-19.95c-3.095-1.558-6.34-2.777-9.71-3.652v-46.232l9.71.271zm4.999-54.472v-19.337h8.67c.57 0 1.04.47 1.04 1.04v18.567z"/><path d="m116.9 250.5c0-1.38-1.12-2.5-2.5-2.5-1.37 0-2.49 1.12-2.49 2.5s1.12 2.5 2.49 2.5c1.38 0 2.5-1.12 2.5-2.5z"/><path d="m48.55 151.569c1.38 0 2.5-1.119 2.5-2.5 0-1.38-1.12-2.5-2.5-2.5h-9.31c-1.347 0-2.5 1.105-2.5 2.5v10.32c0 1.403 1.132 2.5 2.5 2.5h23.39c1.37 0 2.5-1.098 2.5-2.5v-20.64c0-1.368-1.112-2.5-2.5-2.5h-38.17c-1.38 0-2.5 1.12-2.5 2.5s1.12 2.5 2.5 2.5h35.67v15.64h-18.39v-5.32z"/><path d="m101.76 151.569c1.37 0 2.5-1.119 2.5-2.5 0-1.38-1.13-2.5-2.5-2.5h-9.31c-1.338 0-2.5 1.085-2.5 2.5v10.32c0 1.38 1.105 2.5 2.5 2.5h23.38c1.376 0 2.51-1.107 2.51-2.5v-20.64c0-1.343-1.097-2.5-2.51-2.5h-38.16c-1.38 0-2.5 1.12-2.5 2.5s1.12 2.5 2.5 2.5h35.66v15.64h-18.39v-5.32z"/><path d="m154.96 151.569c1.38 0 2.5-1.119 2.5-2.5 0-1.38-1.12-2.5-2.5-2.5h-9.311c-1.364 0-2.5 1.136-2.5 2.5v10.32c0 1.403 1.149 2.5 2.5 2.5h23.391c1.38 0 2.5-1.106 2.5-2.5v-20.64c0-1.377-1.103-2.5-2.5-2.5h-38.16c-1.38 0-2.5 1.12-2.5 2.5s1.12 2.5 2.5 2.5h35.66v15.64h-18.391v-5.32z"/><path d="m208.17 151.569c1.38 0 2.5-1.119 2.5-2.5 0-1.38-1.12-2.5-2.5-2.5h-9.311c-1.364 0-2.5 1.136-2.5 2.5v10.32c0 1.403 1.149 2.5 2.5 2.5h23.391c1.371 0 2.5-1.099 2.5-2.5v-20.64c0-1.401-1.129-2.5-2.5-2.5h-38.17c-1.37 0-2.5 1.12-2.5 2.5s1.13 2.5 2.5 2.5h35.67v15.64h-18.391v-5.32z"/><path d="m204.92 106.14c.929 1.008 2.521 1.075 3.53.13 1.01-.93 1.069-2.52.14-3.529-.91-.971-2.57-1.04-3.54-.131-1.01.931-1.07 2.511-.14 3.521 0-.001 0 .009.01.009z"/><circle cx="143.939" cy="54.49" r="2.5"/><path d="m35.98 190.8c-1.1.82-1.34 2.39-.52 3.5.808 1.101 2.385 1.34 3.5.53 1.1-.82 1.34-2.391.52-3.5-.78-1.07-2.42-1.32-3.5-.53z"/></g></svg>